<svg width="17" height="13" fill="none" xmlns="http://www.w3.org/2000/svg"><path d="M15.231 3.25v.438C15.231 8.03 11.951 13 5.92 13c-1.875 0-3.594-.531-5.031-1.469.25.031.5.063.78.063a6.597 6.597 0 004.063-1.406A3.265 3.265 0 012.67 7.905c.219.032.406.063.625.063.281 0 .594-.063.844-.125a3.285 3.285 0 01-2.625-3.219v-.031c.437.25.968.375 1.5.406A3.228 3.228 0 011.545 2.28c0-.625.156-1.187.437-1.656a9.52 9.52 0 006.782 3.438c-.063-.25-.094-.5-.094-.75A3.28 3.28 0 0111.95.03c.938 0 1.781.375 2.406 1.032A6.93 6.93 0 0016.42.25a3.206 3.206 0 01-1.438 1.813 6.15 6.15 0 001.875-.5 6.95 6.95 0 01-1.625 1.687z" fill="#141414"/></svg>